<svg xmlns="http://www.w3.org/2000/svg" width="19.805" height="19.786" viewBox="0 0 19.805 19.786">
  <g id="player" transform="translate(0.002 -0.241)">
    <g id="Group_2692" data-name="Group 2692" transform="translate(-0.002 0.241)">
      <path id="Path_6893" data-name="Path 6893" d="M19.679,15.8a13.3,13.3,0,0,0-3.488-1.672c-.231-.085-.457-.169-.678-.254-.485-.181-.875-.335-1.2-.495a3.565,3.565,0,0,1-.583-.356,3.075,3.075,0,0,1-.9-2.538,4.924,4.924,0,0,0,.6-1.276c.008-.026.012-.055.019-.081.026.006.053.015.078.018a.646.646,0,0,0,.095.007.951.951,0,0,0,.769-.482,3.861,3.861,0,0,0,.442-1.712,1.629,1.629,0,0,0-.077-.666.878.878,0,0,0-.106-.195c.677-2.261.65-3.924-.091-4.931a2.247,2.247,0,0,0-1.7-.922H6.929a2.247,2.247,0,0,0-1.7.921c-.741,1.008-.768,2.671-.091,4.931a.876.876,0,0,0-.106.195,1.627,1.627,0,0,0-.077.665A3.866,3.866,0,0,0,5.4,8.67a.948.948,0,0,0,.763.478.659.659,0,0,0,.092-.007c.027,0,.055-.013.083-.019.007.027.012.056.019.082a4.926,4.926,0,0,0,.605,1.276,3.078,3.078,0,0,1-.9,2.536,3.558,3.558,0,0,1-.582.356c-.328.162-.718.317-1.2.5-.219.084-.446.168-.677.253A13.313,13.313,0,0,0,.115,15.8.341.341,0,0,0,0,16.027a.312.312,0,0,0,0,.093v1.6a2.311,2.311,0,0,0,2.308,2.308H17.481a2.311,2.311,0,0,0,2.308-2.308V16.145A.329.329,0,0,0,19.679,15.8Zm-5.5-8.878a3.128,3.128,0,0,1-.341,1.395c-.079.123-.178.179-.22.174a.31.31,0,0,1-.071-.018l.14-1.953c.02-.013.039-.029.059-.04a.438.438,0,0,1,.317-.048.136.136,0,0,1,.08.093A1.042,1.042,0,0,1,14.181,6.918ZM6.167,8.489a.335.335,0,0,1-.212-.171,3.128,3.128,0,0,1-.343-1.4,1.035,1.035,0,0,1,.036-.4.135.135,0,0,1,.08-.092.437.437,0,0,1,.316.047c.021.011.04.028.06.041l.139,1.952A.274.274,0,0,1,6.167,8.489Zm.748.113,0-.048V8.536L6.6,4.2a.941.941,0,0,1,.989-.991,1.418,1.418,0,0,1,.971.274A2.049,2.049,0,0,0,9.9,3.868a.33.33,0,0,0,0-.659,1.418,1.418,0,0,1-.971-.274,2.049,2.049,0,0,0-1.337-.385A1.594,1.594,0,0,0,5.94,4.222l.112,1.566a1.077,1.077,0,0,0-.327-.025c-.706-2.444-.384-3.633.027-4.2A1.58,1.58,0,0,1,6.929.9h5.936a1.575,1.575,0,0,1,1.169.652c.416.566.745,1.756.033,4.211a1.07,1.07,0,0,0-.327.025l.11-1.55a1.9,1.9,0,0,0-.522-1.7c-1.078-1.035-3.389-.664-3.487-.648a.33.33,0,0,0,.108.65c.577-.095,2.226-.2,2.922.474a1.274,1.274,0,0,1,.323,1.157L12.883,8.54v.013l0,.05a1.92,1.92,0,0,1-.074.414,4.1,4.1,0,0,1-1.514,2.139,1.635,1.635,0,0,1-.949.3h-.89a1.635,1.635,0,0,1-.949-.3A4.1,4.1,0,0,1,6.989,9.016,1.925,1.925,0,0,1,6.915,8.6Zm-.441,4.933A3.288,3.288,0,0,0,7.6,11.247a4.566,4.566,0,0,0,.52.443,2.3,2.3,0,0,0,1.335.422h.89a2.3,2.3,0,0,0,1.336-.422,4.53,4.53,0,0,0,.52-.443,3.289,3.289,0,0,0,1.124,2.289,3.658,3.658,0,0,0,.446.293,5.451,5.451,0,0,1-3.374,2.49,2.416,2.416,0,0,1-1.006,0,5.484,5.484,0,0,1-3.359-2.486A3.741,3.741,0,0,0,6.475,13.535Zm-1.041.589A6.081,6.081,0,0,0,9.246,16.96a3.089,3.089,0,0,0,.654.07,3.024,3.024,0,0,0,.63-.066,6.068,6.068,0,0,0,3.83-2.842c.185.081.384.162.6.246a7.145,7.145,0,0,1-4.536,3.269,2.8,2.8,0,0,1-1.061,0,7.145,7.145,0,0,1-4.536-3.269C5.049,14.284,5.247,14.2,5.433,14.124Zm12.048,5.243h-.649a3.964,3.964,0,0,1,.883-2.407.33.33,0,0,0-.467-.465,4.537,4.537,0,0,0-1.076,2.871H3.621a4.537,4.537,0,0,0-1.076-2.871.33.33,0,0,0-.467.465,3.957,3.957,0,0,1,.883,2.407H2.312A1.651,1.651,0,0,1,.663,17.718V16.206a14.028,14.028,0,0,1,3.167-1.463L4.2,14.6a7.857,7.857,0,0,0,5.039,3.679,3.474,3.474,0,0,0,1.312,0,7.86,7.86,0,0,0,5.039-3.68l.371.139a13.979,13.979,0,0,1,3.166,1.463l0,1.513A1.651,1.651,0,0,1,17.481,19.367Z" transform="translate(0.002 -0.241)" fill="#fff"/>
    </g>
  </g>
</svg>
