<svg xmlns="http://www.w3.org/2000/svg" width="21.179" height="17.333" viewBox="0 0 21.179 17.333">
  <g id="dashboard" transform="translate(1.1 -45.833)">
    <g id="Group_1346" data-name="Group 1346" transform="translate(-1 45.933)">
      <g id="Group_1345" data-name="Group 1345">
        <path id="Path_4191" data-name="Path 4191" d="M217.243,207.845l-1.678,1.014c-.594.35-1.224.664-1.818.944-.175.07-.385.175-.594.28a1.807,1.807,0,0,0-.944,1.993,1.741,1.741,0,0,0,1.294,1.294,1.7,1.7,0,0,0,.42.035,1.79,1.79,0,0,0,1.573-.979c.07-.175.175-.385.28-.594.315-.594.594-1.224.944-1.818l1.014-1.678a.381.381,0,0,0-.07-.42A.323.323,0,0,0,217.243,207.845Zm-1.119,1.783a16.2,16.2,0,0,0-.979,1.888,4.553,4.553,0,0,1-.28.594,1.037,1.037,0,0,1-1.189.559.97.97,0,0,1-.769-.769,1.037,1.037,0,0,1,.559-1.189c.175-.1.385-.175.594-.28.629-.315,1.294-.629,1.888-.979l.455-.28Z" transform="translate(-203.432 -201.166)" fill="#fff" stroke="#fff" stroke-width="0.2"/>
        <path id="Path_4192" data-name="Path 4192" d="M19.23,52.541a.374.374,0,0,0-.02-.07.306.306,0,0,0-.034-.063,10.558,10.558,0,0,0-2.227-3.342.38.38,0,0,0-.1-.1A10.439,10.439,0,0,0,5.608,46.682a.373.373,0,0,0-.07.02.307.307,0,0,0-.063.034,10.558,10.558,0,0,0-3.342,2.227.38.38,0,0,0-.1.1A10.455,10.455,0,0,0-1,56.423a10.234,10.234,0,0,0,2.273,6.5.318.318,0,0,0,.28.14H17.427a.318.318,0,0,0,.28-.14,10.234,10.234,0,0,0,2.273-6.5A10.393,10.393,0,0,0,19.23,52.541Zm-1.943,9.825H1.727A9.686,9.686,0,0,1,.552,60.416l.966-.392a.344.344,0,1,0-.28-.629l-.947.384a9.681,9.681,0,0,1-.585-3.006H2.147a.35.35,0,0,0,0-.7H-.294A9.692,9.692,0,0,1,.347,52.93l.96.415a.21.21,0,0,0,.14.035.336.336,0,0,0,.315-.21.347.347,0,0,0-.175-.455L.617,52.3a9.86,9.86,0,0,1,1.718-2.539l.721.721a.338.338,0,0,0,.489,0,.338.338,0,0,0,0-.49l-.721-.721A9.856,9.856,0,0,1,5.5,47.488l.39.962a.306.306,0,0,0,.315.21.264.264,0,0,0,.14-.035.347.347,0,0,0,.175-.455l-.382-.943a9.694,9.694,0,0,1,3-.589V49.08a.35.35,0,0,0,.7,0V46.639a9.692,9.692,0,0,1,3.143.641l-.415.96a.347.347,0,0,0,.175.455.21.21,0,0,0,.14.035.354.354,0,0,0,.315-.21l.419-.97a9.86,9.86,0,0,1,2.539,1.718l-.721.721a.338.338,0,0,0,0,.49.317.317,0,0,0,.245.1.378.378,0,0,0,.245-.1l.721-.721a9.856,9.856,0,0,1,1.78,2.673l-.962.39a.347.347,0,0,0-.175.455.306.306,0,0,0,.315.21c.035,0,.07-.035.14-.035l.943-.382a9.694,9.694,0,0,1,.589,3H16.832a.35.35,0,1,0,0,.7h2.441a9.813,9.813,0,0,1-.632,3.147l-.97-.42a.344.344,0,1,0-.28.629l.983.425A9.92,9.92,0,0,1,17.287,62.367Z" transform="translate(1 -45.933)" fill="#fff" stroke="#fff" stroke-width="0.2"/>
      </g>
    </g>
  </g>
</svg>
