<svg xmlns="http://www.w3.org/2000/svg" width="35.517" height="16.139" viewBox="0 0 35.517 16.139">
  <path id="greyhound" d="M33.193,115.1a9.088,9.088,0,0,0-1.154-.639,4.6,4.6,0,0,0-2.051-.062,5.751,5.751,0,0,1-1.7-.4,2.025,2.025,0,0,0,.577,1.429c-.9.275-1.98,1.58-2.85,2s-3.169-.355-5.974-1.34a7.842,7.842,0,0,0-7.137.657,4.2,4.2,0,0,0-1.19.976,11.049,11.049,0,0,0-2.929,1.926,5.636,5.636,0,0,1-4.084,1.74,5.893,5.893,0,0,1-3.844-2.139.489.489,0,0,0-.684-.053.489.489,0,0,0-.053.684,6.773,6.773,0,0,0,4.536,2.477c.107.009.2.009.311.009a6.708,6.708,0,0,0,4.483-2,10.412,10.412,0,0,1,1.509-1.145,3.612,3.612,0,0,0-.124,1.127,2.374,2.374,0,0,0,2.477,2.743c2.805.027,2.566.568,2.983,1.793a4.365,4.365,0,0,1,.169,1.376,25.531,25.531,0,0,1-2.983,2.06c-.391.062-3.125.63-2.672,1.82a5,5,0,0,0,2.432-.9c1.074-.684,2.264-.9,3.569-1.642a1.182,1.182,0,0,0,.462.293c1.136.417,2.992.524,4.3.968a2,2,0,0,0,.79.1c.462-.027,1.056-.124.95-.444-.178-.506-.834-.639-1.944-.657-1.678-.027-2.042-.178-2.5-.63-.4-.4-.888-.9-.888-2.672h0a25.6,25.6,0,0,1,.009-2.619c.08-1.269-2.228-2.947-2.228-2.947,2.583,1.411,2.486,2.512,2.663,3.027s1.234.852,1.234.852l-1.323,1.465a6.9,6.9,0,0,0,.373,2.344c.115-.55.657-.861,1.527-1.269.959-.444,4.714-1.554,5.433-2.539s3.666-4.581,5.238-5.016,1.154-.391,1.722-.391H35.1a.426.426,0,0,0,.426-.426v-.453A13.982,13.982,0,0,0,33.193,115.1Z" transform="translate(-0.011 -114)" fill="#bdbdbd"/>
</svg>
