<svg xmlns="http://www.w3.org/2000/svg" width="20.242" height="17.386" viewBox="0 0 20.242 17.386">
  <g id="helmet" transform="translate(0.157 -0.346)">
    <path id="Path_4184" data-name="Path 4184" d="M18.941,10.724H16.132L15.18,8.211l2.1-1.2a1.06,1.06,0,0,0,.428-1.372h0a8.346,8.346,0,0,0-1.324-1.982.717.717,0,0,0-.64-.234A8.787,8.787,0,0,0,12.362,1.1,9.124,9.124,0,0,0,7.9.58,9.262,9.262,0,0,0,1.942,3.868,8.182,8.182,0,0,0,.07,10.189a13.877,13.877,0,0,0,.756,2.536.292.292,0,0,0,.546-.209,12.678,12.678,0,0,1-.723-2.4A7.6,7.6,0,0,1,2.393,4.239,8.68,8.68,0,0,1,7.977,1.158a8.539,8.539,0,0,1,4.176.485,8.208,8.208,0,0,1,3.091,2.095.741.741,0,0,0-.088.182,2.144,2.144,0,0,0,.28,1.882l.184.273L10.111,9.222a1.859,1.859,0,0,0-.837,1.011l-.1.28A2.172,2.172,0,0,0,7.3,12.1a.292.292,0,1,0,.564.152,1.584,1.584,0,1,1,.052.986.292.292,0,1,0-.545.211,2.168,2.168,0,0,0,4.134-.3h2.751a1.183,1.183,0,0,1-.041,1.669l-.074.071C13,16,11.571,17.361,10.193,16.9a14.67,14.67,0,0,0-5.534-.791L2.8,13.7A1.027,1.027,0,0,0,1.537,13.4a.851.851,0,0,0-.389,1.139l.945,1.924a1.2,1.2,0,0,0,1.481.6l1-.361a14.155,14.155,0,0,1,5.433.758,2.4,2.4,0,0,0,.76.124c1.415,0,2.708-1.238,3.778-2.262l.074-.071a1.767,1.767,0,0,0,.347-2.091h1.461l.618,1.631a1.132,1.132,0,0,0,1.071.764H18.8a1.134,1.134,0,0,0,1.133-1.133v-2.7a1,1,0,0,0-.994-.994ZM3.376,16.514a.613.613,0,0,1-.759-.307l-.945-1.924a.267.267,0,0,1,.122-.358.44.44,0,0,1,.542.127l1.707,2.221Zm15.564-5.205a.411.411,0,0,1,.411.411v.856H16.833l-.48-1.267Zm-3.434-.584h-.744l-1.01-1.447a.292.292,0,0,0-.221-.124L14.667,8.5Zm.447-6.676a7.757,7.757,0,0,1,1.231,1.843A.474.474,0,0,1,17,6.5l-.277.157-.8-1.187,0,0A1.557,1.557,0,0,1,15.711,4.1a.142.142,0,0,1,.108-.1.156.156,0,0,1,.032,0,.134.134,0,0,1,.1.047ZM10.169,9.9a1.271,1.271,0,0,1,.232-.17l5.546-3.168.262.389-5.577,3.185a.806.806,0,0,0-.363.439l-.034.1a2.155,2.155,0,0,0-.449-.134l.04-.116a1.278,1.278,0,0,1,.342-.524Zm.58,1.08.074-.215a.222.222,0,0,1,.1-.121l.888-.507a2.068,2.068,0,0,0,.7,1.472l1.1.967H11.56a2.165,2.165,0,0,0-.812-1.6Zm3.737,1.6-1.592-1.4a1.481,1.481,0,0,1-.477-1.381l.093-.053h.851l1.01,1.447a.292.292,0,0,0,.24.125h1.118l.48,1.267ZM18.8,14.97h-.685a.548.548,0,0,1-.52-.372l0-.01-.541-1.428h2.3v1.262a.549.549,0,0,1-.549.549Zm0,0" transform="translate(0)" fill="#fff" stroke="#fff" stroke-width="0.3"/>
    <path id="Path_4185" data-name="Path 4185" d="M217.609,288.4a1,1,0,1,0-1,1A1,1,0,0,0,217.609,288.4Zm-1.416,0a.416.416,0,1,1,.416.416A.416.416,0,0,1,216.194,288.4Zm0,0" transform="translate(-207.215 -275.732)" fill="#fff" stroke="#fff" stroke-width="0.3"/>
  </g>
</svg>
