<svg xmlns="http://www.w3.org/2000/svg" width="34.713" height="21.609" viewBox="0 0 34.713 21.609">
  <path id="horse-racing" d="M34.259,80.945A18.126,18.126,0,0,1,32.5,78.61a3.033,3.033,0,0,0-1.926-1.649,2.368,2.368,0,0,0-1.484-.555.917.917,0,0,1,.3.555,7.184,7.184,0,0,0-2.794.772,2.954,2.954,0,0,0,.677-1.8c.017-.729-.581-1.475-1.762-1.189A1.613,1.613,0,0,0,24.445,76.2a1.509,1.509,0,0,0,.2.807c-.043.226-.2-.686-1.493-.824s-5.892.165-6.265,3.054c-.182,1.44,2.629,1.883,4.3,1.276,0,0-3.9,1.25-3.818,3.072a1.166,1.166,0,0,0,.486.781A1.45,1.45,0,0,1,17.1,83.5c-.26-.885,1.909-2.369,1.909-2.369L17.077,80.6s-6.69-1.154-8.461.712a5.766,5.766,0,0,0-4.634,2.655C2.2,87.149,0,85.058,0,85.058s1.64,3.809,4.538,2.083c1.388-.824.9-2.326,2.916-4.122-.772,1.675-.486,3.558,3.089,5.111,0,0,1.354.451,1.293,1.545s-.607,2.569.286,2.846,4.261,1.736,4.486,2.3.512,1.25,1.241,1.267c.547.017,1.64.13,2.143.191-.72-.677-1.493-1.328-3.124-2.742a18.6,18.6,0,0,1-2.456-1.085c-.26-.243-.764-.321-.686-1.614a22.212,22.212,0,0,0,.226-4.347,3.262,3.262,0,0,0-.764-2.074s1.38,1.007,1.1,3.9c-.182,1.866-.451,2.976.451,3.662A8.536,8.536,0,0,0,16.8,93.067a4.361,4.361,0,0,1-1.7-2.178,7.057,7.057,0,0,1-.26-3.081s2.785,1.9,4.842,1.779a14.475,14.475,0,0,0,2.508,2.334c.955.547,1.666,1.154,1.562,1.423a4.872,4.872,0,0,1-1.909.8,5.122,5.122,0,0,1-.928-.39s-1.093-.894-1.163-.894a2.244,2.244,0,0,0-1.258.286l.121.1c.434.252,3.081,1.8,3.081,1.8a7.973,7.973,0,0,0,3.228-1.163c.486-.434-.148-1.284-.547-2s-.955-1.683-.955-1.683,4.642.694,4.833.816a5.33,5.33,0,0,1-.165,3.15l-1.189.885.781,1.241a5.34,5.34,0,0,0,1.4-3.089,12.019,12.019,0,0,0,.174-2.95s-2.421-1.484-3.124-1.874a8.107,8.107,0,0,1-1.527,1.25,7.848,7.848,0,0,0,1.64-2.89l.009-.009c.165-.6.373-1.276.573-1.9a8.55,8.55,0,0,1,2.7-3.7c.425-.078.928.651,1.944.729s1.579.651,1.614,1.05c0,0,1.4.347,1.6-.625A1.217,1.217,0,0,0,34.259,80.945ZM26.076,79.8c-.955,1.267-1.614,1.718-2.109,1.631-.894-.156-1.848-2.352-1.848-2.352s.955,1.866,1.848,2.057c.7.148,1.05-.729,2.725-2.282a1.28,1.28,0,0,1,.868-.4A4.049,4.049,0,0,0,26.076,79.8Z" transform="translate(0 -74.677)" fill="#bdbdbd"/>
</svg>
