<svg xmlns="http://www.w3.org/2000/svg" width="23.622" height="23.354" viewBox="0 0 23.622 23.354">
  <g id="horse-head" transform="translate(-4.743 0.565) rotate(-30)">
    <path id="Path_4189" data-name="Path 4189" d="M17.542,11.513a.386.386,0,0,0-.368-.27H14.136A7.164,7.164,0,0,0,9.948,9.527,18.4,18.4,0,0,0,2.4,10.6l-2.148.781a.386.386,0,1,0,.264.725l2.147-.781A17.632,17.632,0,0,1,9.9,10.3a6.388,6.388,0,0,1,2.944.949.386.386,0,0,0,.05.768h3.063l-.612.43a2.216,2.216,0,0,1-2.029.269.386.386,0,0,0-.264.725,2.984,2.984,0,0,0,1.577.127l-.474,9.591c0,.011,0,.022,0,.033a1.641,1.641,0,0,0-1.6.71.386.386,0,1,0,.642.428.868.868,0,0,1,.734-.385,1.755,1.755,0,0,1-.952.789l-.34.117a.917.917,0,0,1-.163.04l-.415-1.66a.386.386,0,0,0-.749.187l.3,1.211-.313-.178A.6.6,0,0,1,11,23.791a2.348,2.348,0,0,0-.077-1.308l-.854-2.4a2.992,2.992,0,0,0,.3.037l1.741.118h.027a.386.386,0,0,0,.026-.771l-1.741-.118a1.946,1.946,0,0,1-.664-3.717l1.552-.7a.386.386,0,0,0-.316-.7l-1.552.7a2.709,2.709,0,0,0-1.184,1,14.671,14.671,0,0,0-5.352,2.712.386.386,0,1,0,.513.577A13.348,13.348,0,0,1,7.89,16.843a2.807,2.807,0,0,0,.2,1.719,25.815,25.815,0,0,1-1.282,3.076c-1.07,2.14-2.2,3.5-3.27,3.932a.386.386,0,1,0,.289.716c2.415-.976,4.184-5.237,4.806-6.938l.036.036a2.58,2.58,0,0,0,.453.348l1.069,3.009a1.577,1.577,0,0,1,.052.879,1.367,1.367,0,0,0,.663,1.5l.584.331a1.693,1.693,0,0,0,1.386.128l.34-.117a2.53,2.53,0,0,0,1.7-2.267l.489-9.9a2.975,2.975,0,0,0,.374-.223L17.4,11.945A.386.386,0,0,0,17.542,11.513Z" transform="translate(0)" fill="#fff"/>
    <path id="Path_4190" data-name="Path 4190" d="M330.606,180.728a.386.386,0,0,0,.574-.516l-.521-.579a.386.386,0,0,0-.574.516Z" transform="translate(-317.25 -163.458)" fill="#fff"/>
  </g>
</svg>
