<svg xmlns="http://www.w3.org/2000/svg" width="16.005" height="16.005" viewBox="0 0 16.005 16.005">
  <path id="Path_4183" data-name="Path 4183" d="M8,0a8,8,0,1,0,8,8A8.011,8.011,0,0,0,8,0Zm.413,2.331,1.622-1.17a7.179,7.179,0,0,1,3.807,2.748l-.622,1.929-2.208.715-2.6-1.879ZM5.95,1.161l1.6,1.17V4.675L5,6.536,2.749,5.8,2.137,3.926A7.163,7.163,0,0,1,5.95,1.161Zm-3.673,11.1A7.1,7.1,0,0,1,.862,8q0-.1,0-.2L2.491,6.625l2.3.747L5.742,10.3,4.309,12.27Zm8.024,2.5a7.143,7.143,0,0,1-4.663-.023L5,12.784,6.44,10.8H9.485l1.454,2Zm1.342-2.455-1.4-1.933L11.206,7.4l2.286-.743,1.649,1.2c0,.048,0,.1,0,.143a7.1,7.1,0,0,1-1.451,4.309Z" fill="#bdbdbd"/>
</svg>
