<svg xmlns="http://www.w3.org/2000/svg" width="114.608" height="21.152" viewBox="0 0 114.608 21.152">
  <g id="Group_729" data-name="Group 729" transform="translate(-220.626 -213.313)">
    <path id="Path_3495" data-name="Path 3495" d="M222.634,225.249a5.256,5.256,0,0,0,3.766,1.757A2.1,2.1,0,0,0,228.728,225c0-2.054-2.967-2.3-5.112-3.56a4.031,4.031,0,0,1-2.259-3.629c0-2.853,2.625-4.5,5.272-4.5a7.4,7.4,0,0,1,4.633,1.506l-1.6,2.282a4.276,4.276,0,0,0-2.761-1.05c-1.164,0-2.465.5-2.465,1.734,0,2.579,7.372,1.78,7.372,7.166,0,2.83-2.533,4.793-5.409,4.793a8.521,8.521,0,0,1-5.774-2.4Z" transform="translate(0 0)" fill="#fff"/>
    <path id="Path_3496" data-name="Path 3496" d="M332.139,256.354h2.853v.89a5.07,5.07,0,0,1,3.241-1.118,5.556,5.556,0,0,1,5.432,5.774,5.924,5.924,0,0,1-1.392,3.88,5.615,5.615,0,0,1-4.2,1.872,4.667,4.667,0,0,1-2.967-1v5.725h-2.967Zm2.967,7.189a3.242,3.242,0,0,0,2.67,1.369,3.027,3.027,0,0,0,.068-6.048,3.4,3.4,0,0,0-2.739,1.369Z" transform="translate(-98.733 -37.906)" fill="#fff"/>
    <path id="Path_3497" data-name="Path 3497" d="M447.546,256.126a5.764,5.764,0,1,1-5.888,5.774A5.764,5.764,0,0,1,447.546,256.126Zm0,8.786a3.026,3.026,0,1,0-2.921-3.012A2.891,2.891,0,0,0,447.546,264.913Z" transform="translate(-195.7 -37.906)" fill="#fff"/>
    <path id="Path_3498" data-name="Path 3498" d="M566.076,258.979a4.128,4.128,0,0,0-1.073-.114,3.285,3.285,0,0,0-2.693,1.6v6.961h-2.967V256.354H562.2v1.118a4.143,4.143,0,0,1,3.218-1.346,6.067,6.067,0,0,1,1,.091Z" transform="translate(-299.897 -37.906)" fill="#fff"/>
    <path id="Path_3499" data-name="Path 3499" d="M638.622,245.385a7.307,7.307,0,0,1-1.848.228,4.558,4.558,0,0,1-3.834-1.6,5.193,5.193,0,0,1-.822-3.309v-3.88h-3.081v-2.51h3.081v-3.081h2.967v3.081h3.652v2.51h-3.652v4.222a2.037,2.037,0,0,0,.365,1.392,1.88,1.88,0,0,0,1.506.548,7.233,7.233,0,0,0,1.21-.114Z" transform="translate(-361.604 -15.868)" fill="#fff"/>
    <path id="Path_3500" data-name="Path 3500" d="M723.467,264.045a4.66,4.66,0,0,0,3.035,1.1c.8,0,1.415-.388,1.415-.936,0-1.666-5.363-1.073-5.363-4.633,0-2.122,2.054-3.446,4.245-3.446a6.865,6.865,0,0,1,3.743,1.118l-1.392,2.145a3.732,3.732,0,0,0-2.122-.753c-.822,0-1.506.319-1.506.89,0,1.438,5.363.867,5.363,4.7,0,2.122-2.077,3.423-4.4,3.423a7.656,7.656,0,0,1-4.45-1.484Z" transform="translate(-443.938 -37.906)" fill="#fff"/>
    <path id="Path_3501" data-name="Path 3501" d="M956.964,265.666a6.006,6.006,0,0,1-4.542,1.986,5.535,5.535,0,0,1-5.8-5.751c0-3.081,2.1-5.774,5.386-5.774a5.374,5.374,0,0,1,5.226,5.66,4.852,4.852,0,0,1-.069.844H949.5a2.906,2.906,0,0,0,2.99,2.625,3.916,3.916,0,0,0,2.784-1.278Zm-2.761-5.2a2.207,2.207,0,0,0-2.191-1.94,2.4,2.4,0,0,0-2.373,1.94Z" transform="translate(-642.795 -37.906)" fill="#fff"/>
    <path id="Path_3502" data-name="Path 3502" d="M1060.887,258.979a4.127,4.127,0,0,0-1.072-.114,3.284,3.284,0,0,0-2.693,1.6v6.961h-2.967V256.354h2.853v1.118a4.143,4.143,0,0,1,3.218-1.346,6.066,6.066,0,0,1,1,.091Z" transform="translate(-738 -37.906)" fill="#fff"/>
    <path id="Path_3503" data-name="Path 3503" d="M1123.762,256.126a5.764,5.764,0,1,1-5.888,5.774A5.764,5.764,0,0,1,1123.762,256.126Zm0,8.786a3.026,3.026,0,1,0-2.921-3.012A2.891,2.891,0,0,0,1123.762,264.913Z" transform="translate(-794.417 -37.906)" fill="#fff"/>
    <rect id="Rectangle_581" data-name="Rectangle 581" width="3.194" height="15.972" transform="translate(288.999 213.531)" fill="#fff"/>
    <rect id="Rectangle_582" data-name="Rectangle 582" width="3.194" height="15.972" transform="translate(298.583 213.531)" fill="#fff"/>
    <path id="Path_3504" data-name="Path 3504" d="M826.8,243.087l-9.583,6.389h3.195v3.194l9.583-6.389H826.8Z" transform="translate(-528.214 -26.362)" fill="#4af9ba"/>
  </g>
</svg>
